<?xml version="1.0" encoding="UTF-8"?>
<svg version="1.1" xmlns="http://www.w3.org/2000/svg" width="500" height="500">
<path d="M0 0 C0.8233573 -0.00256327 1.6467146 -0.00512655 2.49502212 -0.0077675 C5.26362749 -0.01272272 8.03169176 0.00381603 10.80024719 0.02018738 C12.78095995 0.02103328 14.76167365 0.02055924 16.74238586 0.01885986 C22.128482 0.01799703 27.51437883 0.03566945 32.90042853 0.05658174 C38.52586346 0.07530052 44.15130265 0.07709518 49.77676392 0.08065796 C60.43337277 0.08999255 71.0898896 0.11462547 81.74645787 0.14470643 C93.87687621 0.17820646 106.00729888 0.19472538 118.13775194 0.20979273 C143.09471875 0.24117378 168.0516038 0.29396174 193.00849915 0.36076355 C191.39267795 3.80647702 189.74600011 5.68868525 186.82881165 8.16545105 C182.29981604 12.14113782 177.9984106 16.28164971 173.75068665 20.55607605 C173.11254028 21.19752563 172.47439392 21.83897522 171.81690979 22.49986267 C169.83712284 24.4932077 167.85988046 26.48904212 165.88349915 28.48576355 C151.25561701 43.26338272 151.25561701 43.26338272 147.01631165 46.85295105 C140.27331539 52.56387459 134.2197842 59.086374 128.00849915 65.36076355 C112.05316627 81.47819705 112.05316627 81.47819705 106.83418274 85.66789246 C104.85762945 87.38716486 104.85762945 87.38716486 103.1398468 89.97160339 C100.16054336 93.82586202 97.54931888 96.81553493 92.6118927 97.87504578 C85.54284084 98.61478214 78.47043477 98.2707898 71.38349915 97.98576355 C69.21302877 97.93554368 67.04244673 97.88992672 64.8717804 97.8490448 C59.58156336 97.73944549 54.29555519 97.57265323 49.00849915 97.36076355 C53.02394122 92.54845802 57.21833889 88.00257416 61.65693665 83.57951355 C62.27315887 82.96233459 62.8893811 82.34515564 63.52427673 81.70927429 C64.81889662 80.4139787 66.11476092 79.11992576 67.41181946 77.82707214 C69.37488086 75.86935835 71.33255653 73.90637384 73.28974915 71.9427948 C78.74095435 66.48894254 84.16953271 61.09112717 90.05000305 56.09660339 C94.57188054 52.08880622 98.75681835 47.71356949 103.00849915 43.42326355 C103.98352301 42.44321045 104.95878194 41.46339115 105.9342804 40.48381042 C108.29466533 38.11174042 110.65266819 35.73735494 113.00849915 33.36076355 C92.04987943 29.80161045 92.04987943 29.80161045 72.58613586 36.09416199 C64.27849355 42.69867158 57.46290955 50.95037765 50.75312805 59.11857605 C48.15379786 62.25141636 45.3593176 64.87788492 42.21162415 67.4571991 C39.12033822 70.12816057 36.26906565 73.01773179 33.39131165 75.91545105 C32.80301575 76.50706528 32.21471985 77.0986795 31.6085968 77.70822144 C29.7815877 79.54878902 27.95714053 81.39185948 26.13349915 83.23576355 C23.70146729 85.69435426 21.26615437 88.14962658 18.82881165 90.60295105 C18.27363861 91.16642242 17.71846558 91.7298938 17.14646912 92.31044006 C12.2015016 97.28715014 12.2015016 97.28715014 9.05961609 97.48101807 C8.26463715 97.47879745 7.4696582 97.47657684 6.65058899 97.47428894 C5.29941483 97.47417564 5.29941483 97.47417564 3.92094421 97.47406006 C2.94694672 97.46889877 1.97294922 97.46373749 0.96943665 97.4584198 C-0.02655548 97.45700485 -1.02254761 97.4555899 -2.04872131 97.45413208 C-5.23801138 97.44852291 -8.42723191 97.43596885 -11.61650085 97.42326355 C-13.77535401 97.41824973 -15.93420826 97.41368662 -18.09306335 97.40959167 C-23.39256635 97.3985505 -28.69202864 97.38180342 -33.99150085 97.36076355 C-32.1439346 93.34876753 -29.49570943 90.60370666 -26.36650085 87.54826355 C-25.87021179 87.05261902 -25.37392273 86.55697449 -24.8625946 86.04631042 C-22.07263228 83.28829423 -19.20502428 80.66058291 -16.22880554 78.10466003 C-12.27183234 74.65326702 -8.54445159 71.02752392 -4.85868835 67.29045105 C-4.21835663 66.6463327 -3.5780249 66.00221436 -2.91828918 65.33857727 C-0.89854135 63.30675451 1.11789334 61.2716948 3.13349915 59.23576355 C5.79981281 56.54270397 8.46952749 53.85308223 11.14131165 51.16545105 C11.74146088 50.55700348 12.34161011 49.94855591 12.95994568 49.32167053 C16.48972393 45.77159161 20.13393214 42.52998715 24.00849915 39.36076355 C25.69378603 37.71292749 27.36546962 36.05073678 29.00849915 34.36076355 C29.33849915 34.03076355 29.66849915 33.70076355 30.00849915 33.36076355 C21.88987124 30.96042491 12.9318476 29.75324948 5.00849915 33.36076355 C-5.62718444 40.43998533 -14.3263526 50.99367092 -22.69245911 60.53681946 C-25.68391302 63.93949119 -28.70233142 67.05033888 -32.16069031 69.98381042 C-35.46328399 72.79831502 -37.92474705 75.71138635 -40.40556335 79.2943573 C-47.10832639 88.146153 -54.07546873 96.7224429 -65.60771179 98.46672058 C-79.01834401 99.75371462 -92.62074022 98.6862838 -105.99150085 97.36076355 C-104.62319954 94.51138558 -103.41777734 92.57480862 -101.06181335 90.45451355 C-100.44491638 89.88917908 -99.82801941 89.3238446 -99.19242859 88.74137878 C-98.16484436 87.81047424 -98.16484436 87.81047424 -97.11650085 86.86076355 C-87.38986967 77.8970904 -78.09351667 68.52185849 -68.79081726 59.1224823 C-68.20374496 58.53125076 -67.61667267 57.94001923 -67.0118103 57.33087158 C-65.91638992 56.22758067 -64.8230925 55.12217532 -63.73254395 54.0140686 C-60.93668772 51.2001155 -58.06866633 48.52829404 -55.06596375 45.93522644 C-51.02403299 42.43575355 -47.24590716 38.72684379 -43.49150085 34.92326355 C-42.81152039 34.23949646 -42.13153992 33.55572937 -41.43095398 32.85124207 C-39.2819916 30.690193 -37.13632807 28.52591629 -34.99150085 26.36076355 C-32.16116248 23.50360338 -29.32737413 20.64992901 -26.49150085 17.79826355 C-25.85792664 17.15639099 -25.22435242 16.51451843 -24.57157898 15.85319519 C-20.77506387 12.03626336 -16.86118807 8.42433396 -12.77079773 4.92350769 C-10.97766909 3.47117964 -10.97766909 3.47117964 -9.8797636 1.78563976 C-6.88263772 -0.47598054 -3.60664476 -0.04075396 0 0 Z " fill="#1E1E1E" transform="translate(256.9915008544922,149.6392364501953)"/>
<path d="M0 0 C62.7 0 125.4 0 190 0 C188.2253437 3.5493126 186.98871205 5.25921359 184.26681519 7.97369385 C183.10153793 9.14309509 183.10153793 9.14309509 181.91271973 10.33612061 C181.05964233 11.18200745 180.20656494 12.02789429 179.32763672 12.89941406 C178.43001617 13.79732666 177.53239563 14.69523926 176.60757446 15.62036133 C174.14941953 18.07908978 171.68514955 20.53160549 169.21973562 22.98305225 C166.64300592 25.54727454 164.07194356 28.11716645 161.50027466 30.6864624 C156.6311025 35.54941983 151.75685482 40.40725677 146.88076317 45.26327491 C141.32911471 50.79256418 135.78314812 56.32753748 130.23765159 61.86299562 C118.83141152 73.24833386 107.41805704 84.62651247 96 96 C92.72408482 94.56459378 90.54993053 92.8010776 88.02630615 90.28027344 C87.24670532 89.50631226 86.46710449 88.73235107 85.66387939 87.93493652 C84.81799255 87.08500122 83.97210571 86.23506592 83.10058594 85.359375 C82.20267334 84.46496704 81.30476074 83.57055908 80.37963867 82.64904785 C77.92071328 80.19923233 75.46814674 77.74314212 73.01694775 75.28559875 C70.45213733 72.71572421 67.88245023 70.15073355 65.3135376 67.58496094 C61.00262025 63.27768071 56.69593426 58.96620342 52.39160156 54.65234375 C47.41019499 49.66003932 42.42160555 44.67499945 37.42925048 39.69364548 C33.14526888 35.41872753 28.86518171 31.13993981 24.58835053 26.85786819 C22.03288849 24.29928314 19.47608252 21.74208048 16.91576385 19.18835449 C14.06538219 16.34480074 11.22321148 13.49317796 8.38183594 10.640625 C7.52785217 9.7906897 6.67386841 8.94075439 5.79400635 8.06506348 C4.64152405 6.9041217 4.64152405 6.9041217 3.46575928 5.71972656 C2.79251492 5.04572815 2.11927055 4.37172974 1.42562485 3.67730713 C0 2 0 2 0 0 Z " fill="#1E1E1E" transform="translate(50,150)"/>
<path d="M0 0 C14.22059735 -3.56348025 30.14200975 -5.93828748 44 0 C54.82094159 6.48752016 63.69149299 16.37404253 72.25 25.5 C72.82218388 26.10984867 73.39436775 26.71969734 73.98389053 27.34802628 C81.18786849 35.06194486 88.17811402 42.94656444 95 51 C98.72596434 49.48591717 100.68372888 47.32871028 103.25390625 44.27490234 C104.09412827 43.29428329 104.93435028 42.31366425 105.80003357 41.30332947 C106.24811308 40.77910841 106.69619259 40.25488735 107.15785027 39.71478081 C142.52351631 -1.29553446 142.52351631 -1.29553446 161.03515625 -3.24609375 C171.46558643 -3.84944177 181.86753617 -2.41574199 192 0 C190.55802042 3.30027875 188.77180823 5.47555514 186.22885132 8.01165771 C185.44358566 8.7996727 184.65832001 9.58768768 183.84925842 10.39958191 C182.98683029 11.25481949 182.12440216 12.11005707 181.23583984 12.99121094 C180.32846573 13.89887711 179.42109161 14.80654327 178.48622131 15.74171448 C176.00120797 18.22730138 173.51007876 20.70667578 171.01780653 23.18498135 C168.41304986 25.77723116 165.81396002 28.37515004 163.21426392 30.97247314 C158.29196785 35.88855432 153.36459597 40.79951523 148.43538058 45.7086575 C142.82327399 51.2984054 137.21684885 56.89383688 131.61089396 62.48975325 C120.08023972 73.99950528 108.54247086 85.50209796 97 97 C93.70576469 95.55907692 91.52519641 93.77635936 88.98834229 91.24230957 C88.2003273 90.45993423 87.41231232 89.6775589 86.60041809 88.87147522 C85.74518051 88.01218918 84.88994293 87.15290314 84.00878906 86.26757812 C83.10112289 85.3634166 82.19345673 84.45925507 81.25828552 83.5276947 C78.77250137 81.05102095 76.29307625 78.56807141 73.81501865 76.08366966 C71.22218091 73.48576804 68.62446672 70.89274998 66.02752686 68.2989502 C61.66953109 63.94459163 57.31576668 59.58603563 52.96435547 55.22509766 C47.92841741 50.17826187 42.88529623 45.13869 37.83840966 40.10280466 C33.50771939 35.78117798 29.18092334 31.45568146 24.85738349 27.12690115 C22.27397587 24.54037046 19.68922399 21.95522209 17.10095978 19.37355042 C14.21944542 16.49886386 11.34614109 13.61610767 8.47363281 10.73242188 C7.61029831 9.87313583 6.74696381 9.01384979 5.85746765 8.12852478 C5.08073196 7.34614944 4.30399628 6.56377411 3.50372314 5.75769043 C2.82310444 5.07631767 2.14248573 4.39494492 1.44124222 3.6929245 C0 2 0 2 0 0 Z " fill="#1D1D1D" transform="translate(151,253)"/>
<path d="M0 0 C1.98 0 3.96 0 6 0 C5.01 1.485 5.01 1.485 4 3 C6.38707657 5.45527876 8.72041271 7.78493285 11.4375 9.875 C14.10733871 12.08901259 16.18856599 14.44395438 18.375 17.12109375 C20.46663808 19.53955029 22.73219671 21.74493388 25 24 C26.07691969 25.07623776 27.15347846 26.15283674 28.22973633 27.22973633 C28.80996048 27.80996048 29.39018463 28.39018463 29.98799133 28.98799133 C37.99199422 36.99199422 45.99599711 44.99599711 54 53 C53.505 53.99 53.505 53.99 53 55 C46.08380584 48.13006626 39.17296272 41.25479982 32.2689743 34.37259865 C29.06329837 31.17737741 25.85578131 27.98405023 22.64404297 24.79492188 C19.54688653 21.71943378 16.45458546 18.63914137 13.36564636 15.55540085 C12.18398577 14.37744684 11.00056112 13.20125979 9.81538391 12.02684402 C8.16068383 10.38657899 6.51226484 8.74024613 4.86523438 7.09228516 C4.36964523 6.60388657 3.87405609 6.11548798 3.3634491 5.61228943 C0 2.22810432 0 2.22810432 0 0 Z " fill="#0C0C0C" transform="translate(151,253)"/>
<path d="M0 0 C0 2 0 2 -1.5 3.625 C-1.995 4.07875 -2.49 4.5325 -3 5 C-2.01 6.485 -2.01 6.485 -1 8 C1.64954732 8.27970637 4.06226451 8.37215642 6.7109375 8.328125 C7.47548248 8.32625183 8.24002747 8.32437866 9.02774048 8.32244873 C10.64679312 8.31572082 12.26582931 8.30179162 13.88476562 8.28125 C16.35822734 8.25021048 18.83105068 8.24029043 21.3046875 8.234375 C22.8776119 8.22519992 24.45052984 8.21482255 26.0234375 8.203125 C27.13143204 8.19675018 27.13143204 8.19675018 28.2618103 8.19024658 C31.63989038 8.14347927 34.7694615 8.04848046 38 7 C37.34 7.99 36.68 8.98 36 10 C34.01315308 10.36076355 34.01315308 10.36076355 31.55029297 10.34057617 C30.62948944 10.34034958 29.70868591 10.34012299 28.75997925 10.33988953 C27.76410797 10.32440567 26.76823669 10.30892181 25.7421875 10.29296875 C24.72399933 10.28872391 23.70581116 10.28447906 22.6567688 10.28010559 C19.39591327 10.26327579 16.13566959 10.22561546 12.875 10.1875 C10.66797766 10.17245874 8.46094566 10.15876937 6.25390625 10.14648438 C0.83572777 10.1133583 -4.58209242 10.06311653 -10 10 C-8.61437164 7.11723885 -7.2806067 5.00780064 -5 2.75 C-4.484375 2.22921875 -3.96875 1.7084375 -3.4375 1.171875 C-2 0 -2 0 0 0 Z " fill="#111111" transform="translate(161,237)"/>
<path d="M0 0 C0.33 0.99 0.66 1.98 1 3 C0.57178955 3.39791748 0.1435791 3.79583496 -0.29760742 4.20581055 C-2.26180421 6.03207589 -4.22466005 7.85977647 -6.1875 9.6875 C-6.86103516 10.31333984 -7.53457031 10.93917969 -8.22851562 11.58398438 C-11.88717514 14.99278422 -15.48783196 18.43905185 -19 22 C-21.33333333 24.33333333 -23.66666667 26.66666667 -26 29 C-26.66 28.67 -27.32 28.34 -28 28 C-18.76 18.76 -9.52 9.52 0 0 Z " fill="#101010" transform="translate(235,163)"/>
<path d="M0 0 C-3.3 3.3 -6.6 6.6 -10 10 C-10.66 9.67 -11.32 9.34 -12 9 C-9.36 6.36 -6.72 3.72 -4 1 C-15.88 0.67 -27.76 0.34 -40 0 C-40 -0.33 -40 -0.66 -40 -1 C-34.946682 -1.1926016 -29.89313436 -1.37126925 -24.83886719 -1.53710938 C-23.11998328 -1.59546454 -21.40122359 -1.65760799 -19.68261719 -1.72363281 C-17.21051656 -1.81794417 -14.73828761 -1.89856795 -12.265625 -1.9765625 C-11.11540863 -2.02485703 -11.11540863 -2.02485703 -9.94195557 -2.0741272 C-5.75974147 -2.19122545 -3.85374592 -1.92687296 0 0 Z " fill="#111111" transform="translate(374,182)"/>
<path d="M0 0 C14.19 0 28.38 0 43 0 C42.34 1.32 41.68 2.64 41 4 C40.01 4 39.02 4 38 4 C38.66 3.01 39.32 2.02 40 1 C26.8 1 13.6 1 0 1 C0 0.67 0 0.34 0 0 Z " fill="#0F0F0F" transform="translate(407,150)"/>
<path d="M0 0 C5.24284116 4.3690343 10.51941304 8.83277764 15 14 C15 14.66 15 15.32 15 16 C14.34 16 13.68 16 13 16 C13 15.34 13 14.68 13 14 C11.68 13.34 10.36 12.68 9 12 C9 11.34 9 10.68 9 10 C8.34 10 7.68 10 7 10 C7 9.34 7 8.68 7 8 C6.401875 7.7525 5.80375 7.505 5.1875 7.25 C2.68373081 5.81927475 1.51927612 4.4308418 0 2 C0 1.34 0 0.68 0 0 Z " fill="#101010" transform="translate(214,273)"/>
<path d="M0 0 C0.99 0.66 1.98 1.32 3 2 C-2.94 7.94 -8.88 13.88 -15 20 C-15 17 -15 17 -13.73071289 15.421875 C-13.1505542 14.87015625 -12.57039551 14.3184375 -11.97265625 13.75 C-11.34552734 13.1415625 -10.71839844 12.533125 -10.07226562 11.90625 C-9.07743164 10.96265625 -9.07743164 10.96265625 -8.0625 10 C-6.75722478 8.75469343 -5.45623755 7.50487256 -4.16015625 6.25 C-3.57886963 5.69828125 -2.99758301 5.1465625 -2.39868164 4.578125 C-0.76156219 2.938994 -0.76156219 2.938994 0 0 Z " fill="#121212" transform="translate(202,185)"/>
<path d="M0 0 C0.33 0.66 0.66 1.32 1 2 C-2.7947001 6.8619595 -6.93883895 11.42118737 -12 15 C-12.99 15 -13.98 15 -15 15 C-10.05 10.05 -5.1 5.1 0 0 Z " fill="#141414" transform="translate(324,228)"/>
<path d="M0 0 C0.66 0.33 1.32 0.66 2 1 C0.35718838 2.66964521 -1.28932761 4.3356464 -2.9375 6 C-3.85402344 6.928125 -4.77054687 7.85625 -5.71484375 8.8125 C-8 11 -8 11 -9 11 C-9.5 8.8125 -9.5 8.8125 -9 6 C-6.51611677 3.99400034 -3.79077545 2.53404147 -1 1 C-0.67 0.67 -0.34 0.34 0 0 Z " fill="#141414" transform="translate(270,325)"/>
<path d="M0 0 C0.66 0.33 1.32 0.66 2 1 C-1.63 4.63 -5.26 8.26 -9 12 C-9 8.26071501 -8.08040398 7.59097747 -5.625 4.875 C-4.99851562 4.17117187 -4.37203125 3.46734375 -3.7265625 2.7421875 C-2 1 -2 1 0 0 Z " fill="#101010" transform="translate(434,164)"/>
<path d="M0 0 C0.66 0.33 1.32 0.66 2 1 C-1.3 4.3 -4.6 7.6 -8 11 C-8.33 10.34 -8.66 9.68 -9 9 C-6 6 -3 3 0 0 Z " fill="#0C0C0C" transform="translate(422,176)"/>
<path d="M0 0 C4.2742558 1.5830577 6.26531794 4.50568404 9 8 C4.32307692 6.52307692 4.32307692 6.52307692 2.6875 3.875 C2.460625 3.25625 2.23375 2.6375 2 2 C1.34 2 0.68 2 0 2 C0 1.34 0 0.68 0 0 Z " fill="#0F0F0F" transform="translate(229,289)"/>
<path d="M0 0 C0.33 0.66 0.66 1.32 1 2 C-0.65 3.98 -2.3 5.96 -4 8 C-4.99 7.67 -5.98 7.34 -7 7 C-4.69 4.69 -2.38 2.38 0 0 Z " fill="#141414" transform="translate(292,260)"/>
<path d="M0 0 C1.14926266 0.95421808 2.29430541 1.91352045 3.4375 2.875 C4.07558594 3.40867187 4.71367187 3.94234375 5.37109375 4.4921875 C7 6 7 6 8 8 C7.01 8 6.02 8 5 8 C0 2.65116279 0 2.65116279 0 0 Z " fill="#101010" transform="translate(206,265)"/>
<path d="M0 0 C1.65 0 3.3 0 5 0 C3.63016497 3.16115776 3.0109362 3.9927092 0 6 C0 4.02 0 2.04 0 0 Z " fill="#111111" transform="translate(338,253)"/>
</svg>
