<svg version="1.1" xmlns="http://www.w3.org/2000/svg" width="500" height="500">
<path d="M0 0 C0.81452434 -0.00512655 1.62904868 -0.0102531 2.46825558 -0.015535 C5.1835999 -0.02537795 7.89669415 0.00751131 10.61183167 0.04037476 C12.56357775 0.04206806 14.51532766 0.04111553 16.46707153 0.03771973 C21.75608061 0.03599986 27.04427145 0.07124893 32.33309054 0.11316347 C37.86371116 0.15069867 43.39435101 0.15419805 48.92507935 0.16131592 C59.39398686 0.1799565 69.86251795 0.22918314 80.33125979 0.28941286 C92.25133556 0.35650227 104.17142942 0.38947316 116.09164703 0.41958547 C140.60843085 0.48228265 165.12488066 0.58780265 189.64137268 0.7215271 C189.64137268 4.7215271 189.64137268 4.7215271 186.98512268 7.5496521 C185.7120474 8.69939393 184.42996474 9.83920318 183.14137268 10.9715271 C175.02293462 18.32251319 167.28458335 26.00139325 159.59132385 33.79098511 C158.58217006 34.81252066 157.572008 35.83306121 156.56080627 36.85256958 C155.20454854 38.22006859 153.85154804 39.5907959 152.49879456 40.96176147 C150.29454181 43.09068091 148.07082457 45.10727467 145.75465393 47.10824585 C141.77965823 50.55561419 138.05419697 54.19608893 134.36012268 57.9402771 C133.70233826 58.60184814 133.04455383 59.26341919 132.36683655 59.94503784 C130.28919994 62.03475445 128.21486641 64.12770025 126.14137268 66.2215271 C123.40479118 68.9849441 120.66475005 71.74486432 117.92262268 74.5027771 C117.00507202 75.43277527 117.00507202 75.43277527 116.06898499 76.38156128 C112.96102688 79.50679636 109.79633504 82.4771877 106.43971252 85.33529663 C103.32688351 88.00872477 101.04058241 90.82559652 98.58668518 94.1199646 C93.43719818 99.32467398 88.80955478 99.61950262 81.82106018 99.6980896 C77.71429129 99.66825835 73.619421 99.51536372 69.51637268 99.3465271 C67.39408177 99.29630495 65.27167659 99.25068838 63.14918518 99.20980835 C57.97706885 99.10022415 52.81048931 98.9280376 47.64137268 98.7215271 C48.98797282 94.57558186 50.62308496 92.51312278 53.94606018 89.7293396 C58.13651375 86.0929956 62.12071863 82.33833797 66.02418518 78.4012146 C66.5737085 77.8483075 67.12323181 77.29540039 67.68940735 76.72573853 C69.38381564 75.01805281 71.07553216 73.30774504 72.76637268 71.5965271 C85.64192166 58.56677993 85.64192166 58.56677993 91.84449768 53.28256226 C95.06120141 50.48805089 98.06543319 47.48170882 101.07887268 44.4715271 C102.01376526 43.55500366 102.01376526 43.55500366 102.96754456 42.6199646 C103.55986877 42.02957397 104.15219299 41.43918335 104.76246643 40.8309021 C105.55801941 40.04151245 105.55801941 40.04151245 106.36964417 39.23617554 C107.87603862 37.63059766 107.87603862 37.63059766 108.64137268 34.7215271 C104.08834514 34.54726503 99.5372951 34.42090672 94.98170471 34.33700562 C93.43546198 34.30200304 91.88944759 34.25438159 90.3440094 34.19345093 C80.18526204 33.47689146 80.18526204 33.47689146 71.29762268 37.53012085 C70.050535 38.90202145 68.83469861 40.30261479 67.64137268 41.7215271 C66.29480949 43.06721231 64.94740706 44.41215935 63.5861969 45.74302673 C61.07437917 48.20579526 58.61188844 50.71744238 56.14137268 53.2215271 C45.10148459 64.41142338 45.10148459 64.41142338 40.75856018 68.1043396 C34.57498196 73.3859475 28.97915877 79.31766086 23.26637268 85.0965271 C20.92809353 87.46137041 18.58652899 89.82288952 16.24293518 92.1824646 C15.70963593 92.72406219 15.17633667 93.26565979 14.62687683 93.82366943 C9.83465732 98.64789627 9.83465732 98.64789627 6.69248962 98.84178162 C5.89751068 98.839561 5.10253174 98.83734039 4.28346252 98.83505249 C2.93228836 98.83493919 2.93228836 98.83493919 1.55381775 98.83482361 C0.57982025 98.82966232 -0.39417725 98.82450104 -1.39768982 98.81918335 C-2.39368195 98.8177684 -3.38967407 98.81635345 -4.41584778 98.81489563 C-7.60513785 98.80928646 -10.79435838 98.7967324 -13.98362732 98.7840271 C-16.14248047 98.77901328 -18.30133473 98.77445017 -20.46018982 98.77035522 C-25.75969282 98.75931405 -31.0591551 98.74256697 -36.35862732 98.7215271 C-34.580818 95.60397236 -32.83242769 92.94472096 -30.28440857 90.4168396 C-29.69852966 89.83289429 -29.11265076 89.24894897 -28.50901794 88.64730835 C-27.90251404 88.05305054 -27.29601013 87.45879272 -26.67112732 86.8465271 C-26.08395935 86.26000366 -25.49679138 85.67348022 -24.89183044 85.06918335 C-21.90914864 82.11571171 -18.87076945 79.2742166 -15.67967224 76.54696655 C-11.08183277 72.53914826 -6.78060169 68.27003373 -2.48362732 63.94418335 C-1.2687262 62.72715981 -1.2687262 62.72715981 -0.02928162 61.48554993 C2.52998283 58.92073571 5.08572798 56.35244762 7.64137268 53.7840271 C9.38723401 52.03314427 11.13332555 50.28249097 12.87965393 48.53207397 C17.13622466 44.26454094 21.38991984 39.99415844 25.64137268 35.7215271 C23.34197507 33.42212949 18.34348447 34.20721457 15.26637268 34.0965271 C14.40914612 34.02562866 13.55191956 33.95473022 12.66871643 33.88168335 C5.49302817 33.67788951 1.79151112 36.20370018 -3.45726013 40.91830444 C-4.42831144 41.84862834 -5.39528149 42.78322651 -6.35862732 43.7215271 C-7.13188354 44.46611176 -7.13188354 44.46611176 -7.92076111 45.22573853 C-11.85932197 49.03744619 -15.70886529 52.93326321 -19.54612732 56.8465271 C-21.78613436 59.12342385 -24.02946062 61.3969777 -26.27659607 63.6668396 C-27.0834787 64.48210617 -27.0834787 64.48210617 -27.90666199 65.31384277 C-31.2619906 68.68198692 -34.72263874 71.85228276 -38.34519958 74.93295288 C-43.35782942 79.38578739 -47.96964202 84.28610299 -52.67503357 89.05844116 C-54.06495323 90.46635025 -55.45783709 91.87133108 -56.85081482 93.2762146 C-57.66920837 94.10620972 -58.48760193 94.93620483 -59.33079529 95.79135132 C-62.11599609 98.44242254 -63.67443067 98.84848507 -67.40940857 98.94271851 C-68.24367371 98.96589142 -69.07793884 98.98906433 -69.93748474 99.01293945 C-70.83958679 99.032789 -71.74168884 99.05263855 -72.67112732 99.0730896 C-74.05811829 99.10781876 -74.05811829 99.10781876 -75.47312927 99.14324951 C-77.43002307 99.19090865 -79.38697725 99.23614032 -81.34397888 99.27914429 C-84.3464877 99.34625576 -87.34859192 99.42400444 -90.35081482 99.5027771 C-92.24923722 99.54769062 -94.14767446 99.59198242 -96.04612732 99.6355896 C-96.94822937 99.65948761 -97.85033142 99.68338562 -98.7797699 99.70800781 C-99.61403503 99.7248764 -100.44830017 99.741745 -101.30784607 99.75912476 C-102.04349792 99.77609406 -102.77914978 99.79306335 -103.53709412 99.81054688 C-105.35862732 99.7215271 -105.35862732 99.7215271 -107.35862732 98.7215271 C-106.77727859 95.45293708 -105.83707581 93.8303113 -103.47972107 91.51449585 C-102.88739685 90.92732788 -102.29507263 90.34015991 -101.68479919 89.73519897 C-101.06153748 89.13256226 -100.43827576 88.52992554 -99.79612732 87.9090271 C-99.19993591 87.31799194 -98.60374451 86.72695679 -97.98948669 86.11801147 C-95.00170003 83.18146231 -91.95680931 80.35454464 -88.76707458 77.63876343 C-83.61199441 73.14286558 -78.82776257 68.296672 -74.01487732 63.4402771 C-73.03686313 62.45784332 -72.05854481 61.47571222 -71.0799408 60.49386597 C-68.00331337 57.40592139 -64.93066296 54.31403896 -61.85862732 51.2215271 C-58.29308828 47.63222246 -54.72584804 44.04464202 -51.15432739 40.46128845 C-49.74104103 39.04161552 -48.33085621 37.61885711 -46.92076111 36.1960144 C-41.8975555 31.15383497 -36.76066377 26.35270439 -31.35862732 21.7215271 C-30.00421657 20.4803609 -28.6566179 19.23159931 -27.32347107 17.96762085 C-26.65895935 17.34049194 -25.99444763 16.71336304 -25.30979919 16.06723022 C-23.96334287 14.79129635 -22.6169893 13.51525403 -21.27073669 12.23910522 C-20.60751404 11.61326538 -19.94429138 10.98742554 -19.26097107 10.34262085 C-18.67823425 9.790177 -18.09549744 9.23773315 -17.49510193 8.66854858 C-16.79006531 8.02603149 -16.08502869 7.3835144 -15.35862732 6.7215271 C-14.64284143 5.99027715 -14.64284143 5.99027715 -13.91259521 5.24425447 C-9.35668311 0.86827842 -6.2290095 -0.14514948 0 0 Z " fill="#EDEDED" transform="translate(259.35862731933594,148.27847290039063)"/>
<path d="M0 0 C24.21684467 -0.02333201 48.43368767 -0.04098067 72.65054131 -0.05181217 C83.89414724 -0.05697448 95.1377462 -0.06401596 106.38134766 -0.07543945 C116.1781296 -0.08538826 125.97490649 -0.0918539 135.77169335 -0.09408849 C140.96183467 -0.09539526 146.15196154 -0.09847901 151.34209824 -0.10573006 C156.22244295 -0.11249336 161.1027672 -0.11461632 165.98311615 -0.11310768 C167.77866604 -0.11338387 169.57421657 -0.11538716 171.36976242 -0.11920547 C173.81260437 -0.12414755 176.25536808 -0.12299636 178.69821167 -0.12025452 C179.77504772 -0.12462378 179.77504772 -0.12462378 180.87363803 -0.12908131 C185.77175758 -0.11412121 185.77175758 -0.11412121 188 1 C187.41870042 4.57132813 186.14129567 6.2289778 183.59707642 8.75695801 C182.86800583 9.48870743 182.13893524 10.22045685 181.38777161 10.97438049 C180.58256577 11.76722946 179.77735992 12.56007843 178.94775391 13.37695312 C178.10386612 14.2196727 177.25997833 15.06239227 176.39051819 15.9306488 C174.07548436 18.23972386 171.75396057 20.54203209 169.42956972 22.84168053 C166.99763397 25.25112517 164.57459518 27.66948126 162.15072632 30.08703613 C157.55602633 34.6672462 152.95416117 39.24018164 148.34932077 43.81019449 C140.10638063 51.99124669 131.87552412 60.1844474 123.64746225 68.38046026 C121.23323872 70.78480156 118.81754024 73.18762824 116.3986702 75.58729553 C113.70076791 78.26385098 111.00570436 80.94323713 108.31103516 83.62304688 C107.50987778 84.41589584 106.7087204 85.20874481 105.88328552 86.02561951 C104.78122017 87.12324364 104.78122017 87.12324364 103.65689087 88.24304199 C103.01938715 88.87572746 102.38188343 89.50841293 101.72506142 90.16027069 C99.9427271 91.991077 99.9427271 91.991077 98.38863182 94.16840363 C97 96 97 96 95.125 97.0625 C91.76973486 96.96381573 90.21056674 94.31233825 88 92 C86.676162 90.67047292 85.34916976 89.34408301 84.01994324 88.01994324 C55.67996216 59.67996216 27.33998108 31.33998108 -1 3 C-0.67 2.01 -0.34 1.02 0 0 Z " fill="#EDEDED" transform="translate(51,149)"/>
<path d="M0 0 C5.69348156 -0.03019502 11.38436062 -0.01442908 17.07763672 0.04272461 C19.01151182 0.05581098 20.94551219 0.05664767 22.87939453 0.04467773 C25.6708318 0.02957722 28.45884256 0.0594827 31.25 0.09765625 C32.10553467 0.08340103 32.96106934 0.06914581 33.8425293 0.05445862 C40.97519252 0.22395658 44.17594678 2.98650413 49 8 C49.78705322 8.76896103 50.57410645 9.53792206 51.38500977 10.33018494 C54.08294338 12.96630965 56.74651377 15.63395488 59.40625 18.30859375 C60.38108645 19.2853001 61.35614749 20.26178234 62.3314209 21.23805237 C64.87186301 23.78227461 67.40928509 26.32948736 69.94604492 28.87738037 C72.54551127 31.48715882 75.14788494 34.09403482 77.75 36.70117188 C82.83614918 41.79797872 87.9191047 46.89795508 93 52 C96.72946927 50.45135926 99.01878344 48.17685987 101.80932617 45.29077148 C102.2733786 44.81416077 102.73743103 44.33755005 103.21554565 43.84649658 C104.21990676 42.81450535 105.22212854 41.78042864 106.22243309 40.74450493 C107.81034979 39.10312754 109.40704584 37.47080729 111.00691223 35.84107971 C115.5543847 31.20829544 120.09661562 26.57081734 124.60571289 21.90063477 C127.3680283 19.04095954 130.14976132 16.20146385 132.94494057 13.37391853 C134.0028168 12.29631729 135.05335786 11.21146144 136.09609032 10.11919975 C145.2732999 0.51605294 145.2732999 0.51605294 150.72802734 -0.16333008 C152.1530153 -0.15221966 153.57846007 -0.09969133 155 0 C156.29607178 -0.0427002 157.59214355 -0.08540039 158.92749023 -0.12939453 C160.84863647 -0.13108643 160.84863647 -0.13108643 162.80859375 -0.1328125 C163.50138931 -0.13376923 164.19418488 -0.13472595 164.90797424 -0.13571167 C166.35230603 -0.13638496 167.79664101 -0.13459095 169.2409668 -0.13037109 C171.45693618 -0.12495247 173.67270818 -0.13037418 175.88867188 -0.13671875 C177.29947961 -0.13605894 178.71028723 -0.13477979 180.12109375 -0.1328125 C182.03039673 -0.13112061 182.03039673 -0.13112061 183.97827148 -0.12939453 C187 0 187 0 189 1 C188.42291258 4.6900719 186.98179037 6.39832396 184.37602234 9.01838684 C183.20885681 10.20257706 183.20885681 10.20257706 182.01811218 11.41069031 C181.15837296 12.26749893 180.29863373 13.12430756 179.4128418 14.00708008 C178.06163742 15.37098877 178.06163742 15.37098877 176.68313599 16.76245117 C174.21294869 19.25486189 171.73319419 21.73753942 169.25092673 24.21791291 C167.18059692 26.28812312 165.11462441 28.36265533 163.04852802 30.43708915 C158.17619788 35.32865448 153.29573363 40.21200019 148.41040039 45.09057617 C143.36593405 50.12839369 138.33642766 55.18080606 133.31385106 60.24043924 C129.00343597 64.58150179 124.68346364 68.91288931 120.35574847 73.23670501 C117.76995032 75.82043139 115.18810532 78.40782654 112.61557579 81.00477028 C109.74937536 83.89727012 106.86355247 86.76937026 103.9753418 89.63989258 C103.12167526 90.50682236 102.26800873 91.37375214 101.38847351 92.26695251 C100.20861877 93.42999405 100.20861877 93.42999405 99.00492859 94.61653137 C98.3241006 95.29807187 97.64327261 95.97961237 96.94181347 96.68180561 C95 98 95 98 92.95042133 97.93159389 C90.56443514 96.79195799 89.44504719 95.5359976 87.78833008 93.47796631 C83.90046845 88.83203968 79.7001026 84.60188074 75.38671875 80.35253906 C74.55503677 79.52874252 73.7233548 78.70494598 72.86647034 77.85618591 C71.07454573 76.08136083 69.2815802 74.30758618 67.4876709 72.53476715 C64.65234162 69.73085621 61.82173501 66.92223548 58.99316406 64.11151123 C58.02127125 63.14587734 57.04937794 62.18024395 56.07748413 61.21461105 C55.59133007 60.73157312 55.10517601 60.24853518 54.60429001 59.75085974 C48.02928741 53.21876973 41.44963938 46.69145987 34.85595703 40.17822266 C30.39104615 35.76768952 25.93500373 31.34840715 21.48902035 26.91879249 C19.13991932 24.57907392 16.78509634 22.24561237 14.42196655 19.92005157 C11.79581609 17.33464611 9.185369 14.73433304 6.578125 12.12988281 C5.79071426 11.3620195 5.00330353 10.59415619 4.19203186 9.80302429 C3.48831955 9.09388382 2.78460724 8.38474335 2.05957031 7.65411377 C1.44092102 7.04137226 0.82227173 6.42863075 0.18487549 5.79732132 C-1 4 -1 4 -0.69122314 1.77161789 C-0.46311951 1.18698399 -0.23501587 0.60235008 0 0 Z " fill="#ECECEC" transform="translate(153,252)"/>
</svg>
